<svg width="40" height="40" viewBox="0 0 40 40" fill="none" xmlns="http://www.w3.org/2000/svg">
<mask id="mask0_259_8" style="mask-type:alpha" maskUnits="userSpaceOnUse" x="0" y="0" width="40" height="40">
<rect width="40" height="40" fill="#D9D9D9"/>
</mask>
<g mask="url(#mask0_259_8)">
<path d="M4.917 32.333C4.30567 32.333 3.79167 32.1247 3.375 31.708C2.95833 31.2913 2.75 30.7777 2.75 30.167C2.75 29.5557 2.95833 29.0417 3.375 28.625C3.79167 28.2083 4.30567 28 4.917 28C5.111 28 5.31233 28.0277 5.521 28.083C5.729 28.139 5.93033 28.2223 6.125 28.333L14.833 19.625C14.7223 19.4303 14.639 19.229 14.583 19.021C14.5277 18.8123 14.5 18.611 14.5 18.417C14.5 17.8057 14.7083 17.2917 15.125 16.875C15.5417 16.4583 16.0557 16.25 16.667 16.25C17.2777 16.25 17.7913 16.4583 18.208 16.875C18.6247 17.2917 18.833 17.8057 18.833 18.417C18.833 18.5837 18.7497 18.9587 18.583 19.542L23.875 24.833C24.0697 24.7497 24.2573 24.6873 24.438 24.646C24.618 24.604 24.8053 24.583 25 24.583C25.1947 24.583 25.389 24.611 25.583 24.667C25.7777 24.7223 25.9583 24.8057 26.125 24.917L33.25 17.792C33.1387 17.6253 33.0553 17.4447 33 17.25C32.9447 17.0553 32.917 16.861 32.917 16.667C32.917 16.0557 33.1253 15.5417 33.542 15.125C33.9587 14.7083 34.4723 14.5 35.083 14.5C35.6943 14.5 36.2083 14.7083 36.625 15.125C37.0417 15.5417 37.25 16.0557 37.25 16.667C37.25 17.2777 37.0417 17.7913 36.625 18.208C36.2083 18.6247 35.6943 18.833 35.083 18.833C34.889 18.833 34.6947 18.8053 34.5 18.75C34.3053 18.6947 34.1247 18.6113 33.958 18.5L26.833 25.625C26.9443 25.7917 27.0277 25.9723 27.083 26.167C27.139 26.361 27.167 26.5553 27.167 26.75C27.167 27.3613 26.9587 27.8753 26.542 28.292C26.1253 28.7087 25.6113 28.917 25 28.917C24.3887 28.917 23.8747 28.7087 23.458 28.292C23.0413 27.8753 22.833 27.3613 22.833 26.75C22.833 26.5553 22.861 26.354 22.917 26.146C22.9723 25.9373 23.0557 25.736 23.167 25.542L17.875 20.25C17.6803 20.3613 17.479 20.4447 17.271 20.5C17.0623 20.5553 16.861 20.583 16.667 20.583C16.5003 20.583 16.1253 20.4997 15.542 20.333L6.833 29.042C6.91633 29.236 6.979 29.4233 7.021 29.604C7.06233 29.7847 7.083 29.9723 7.083 30.167C7.083 30.7777 6.87467 31.2913 6.458 31.708C6.04133 32.1247 5.52767 32.333 4.917 32.333ZM6.667 14.667L6.208 13.667L5.208 13.208L6.208 12.75L6.667 11.75L7.167 12.75L8.125 13.208L7.167 13.667L6.667 14.667ZM25 12L24.333 10.5L22.833 9.83299L24.333 9.16699L25 7.66699L25.667 9.16699L27.167 9.83299L25.667 10.5L25 12Z" fill="url(#paint0_linear_259_8)"/>
</g>
<defs>
<linearGradient id="paint0_linear_259_8" x1="2.75" y1="19.9978" x2="42.3133" y2="19.9978" gradientUnits="userSpaceOnUse">
<stop offset="0.03" stop-color="#F2A01E"/>
<stop offset="0.22" stop-color="#F29C20"/>
<stop offset="0.41" stop-color="#F19126"/>
<stop offset="0.58" stop-color="#F07E30"/>
<stop offset="0.76" stop-color="#EF633E"/>
<stop offset="0.92" stop-color="#ED4251"/>
<stop offset="1" stop-color="#EC305A"/>
</linearGradient>
</defs>
</svg>
