<svg width="60" height="60" viewBox="0 0 60 60" fill="none" xmlns="http://www.w3.org/2000/svg">
<mask id="mask0_153_37" style="mask-type:alpha" maskUnits="userSpaceOnUse" x="0" y="0" width="60" height="60">
<rect width="60" height="60" fill="#D9D9D9"/>
</mask>
<g mask="url(#mask0_153_37)">
<path d="M50.8759 27.125V47.125C50.8759 48.2083 50.5217 49.1042 49.8133 49.8125C49.105 50.5208 48.2092 50.875 47.1259 50.875H12.8759C11.7925 50.875 10.8967 50.5208 10.1884 49.8125C9.48002 49.1042 9.12585 48.2083 9.12585 47.125V27C8.04252 26.25 7.26169 25.2608 6.78335 24.0325C6.30335 22.8025 6.29252 21.5 6.75085 20.125L9.12585 12.25C9.45919 11.25 9.98002 10.4792 10.6884 9.9375C11.3967 9.39583 12.2925 9.125 13.3759 9.125H46.5009C47.5842 9.125 48.48 9.375 49.1883 9.875C49.8967 10.375 50.4175 11.125 50.7508 12.125L53.2508 20.125C53.7092 21.5 53.6992 22.8225 53.2208 24.0925C52.7408 25.3642 51.9592 26.375 50.8759 27.125ZM35.5009 26.625C37.2509 26.625 38.5534 26.1558 39.4084 25.2175C40.2617 24.2808 40.6259 23.3333 40.5009 22.375L38.7509 10.875H30.8759V21.75C30.8759 23.0833 31.3342 24.2292 32.2509 25.1875C33.1675 26.1458 34.2509 26.625 35.5009 26.625ZM24.2509 26.625C25.7092 26.625 26.8867 26.1458 27.7834 25.1875C28.6784 24.2292 29.1259 23.0833 29.1259 21.75V10.875H21.2509L19.5009 22.625C19.4175 23.3333 19.7925 24.1767 20.6259 25.155C21.4592 26.135 22.6675 26.625 24.2509 26.625ZM13.1259 26.625C14.3342 26.625 15.355 26.2183 16.1884 25.405C17.0217 24.5933 17.5425 23.5833 17.7509 22.375L19.3759 10.875H13.3759C12.6675 10.875 12.105 11.0308 11.6884 11.3425C11.2717 11.6558 10.9592 12.125 10.7509 12.75L8.50085 20.5C8.04252 21.9583 8.23002 23.3433 9.06335 24.655C9.89668 25.9683 11.2509 26.625 13.1259 26.625ZM46.8759 26.625C48.4592 26.625 49.7508 26.01 50.7508 24.78C51.7508 23.5517 52.0009 22.125 51.5009 20.5L49.1258 12.625C48.9175 12 48.605 11.5517 48.1883 11.28C47.7717 11.01 47.2092 10.875 46.5009 10.875H40.6259L42.2509 22.375C42.4592 23.5833 42.98 24.5933 43.8134 25.405C44.6467 26.2183 45.6675 26.625 46.8759 26.625ZM12.8759 49.125H47.1259C47.7092 49.125 48.1883 48.9375 48.5633 48.5625C48.9383 48.1875 49.1258 47.7083 49.1258 47.125V28C48.7508 28.125 48.3759 28.2183 48.0009 28.28C47.6259 28.3433 47.2509 28.375 46.8759 28.375C45.7509 28.375 44.7609 28.1458 43.9059 27.6875C43.0525 27.2292 42.2509 26.5 41.5009 25.5C40.8759 26.3333 40.0842 27.0208 39.1259 27.5625C38.1675 28.1042 36.9592 28.375 35.5009 28.375C34.5425 28.375 33.6259 28.135 32.7509 27.655C31.8759 27.1767 30.9592 26.4583 30.0009 25.5C29.1259 26.4583 28.1675 27.1767 27.1259 27.655C26.0842 28.135 25.1259 28.375 24.2509 28.375C23.2509 28.375 22.2509 28.1775 21.2509 27.7825C20.2509 27.3858 19.3759 26.625 18.6259 25.5C17.2925 26.8333 16.1575 27.6458 15.2209 27.9375C14.2825 28.2292 13.5842 28.375 13.1259 28.375C12.7509 28.375 12.3759 28.3433 12.0009 28.28C11.6259 28.2183 11.2509 28.125 10.8759 28V47.125C10.8759 47.7083 11.0634 48.1875 11.4384 48.5625C11.8134 48.9375 12.2925 49.125 12.8759 49.125Z" fill="url(#paint0_linear_153_37)"/>
</g>
<defs>
<linearGradient id="paint0_linear_153_37" x1="6.41504" y1="29.9963" x2="60.5104" y2="29.9963" gradientUnits="userSpaceOnUse">
<stop offset="0.03" stop-color="#F2A01E"/>
<stop offset="0.22" stop-color="#F29C20"/>
<stop offset="0.41" stop-color="#F19126"/>
<stop offset="0.58" stop-color="#F07E30"/>
<stop offset="0.76" stop-color="#EF633E"/>
<stop offset="0.92" stop-color="#ED4251"/>
<stop offset="1" stop-color="#EC305A"/>
</linearGradient>
</defs>
</svg>
