<svg width="40" height="40" viewBox="0 0 40 40" fill="none" xmlns="http://www.w3.org/2000/svg">
<mask id="mask0_153_532" style="mask-type:alpha" maskUnits="userSpaceOnUse" x="0" y="0" width="40" height="40">
<rect width="40" height="40" fill="#D9D9D9"/>
</mask>
<g mask="url(#mask0_153_532)">
<path d="M11.875 33.208L11.667 31.75L16.125 19.417C16.3197 19.5837 16.521 19.7153 16.729 19.812C16.9377 19.9093 17.153 19.986 17.375 20.042L13 32.167L11.875 33.208ZM28.125 33.208L27 32.167L22.625 20.083C22.8197 19.9997 23.028 19.9093 23.25 19.812C23.472 19.7153 23.6803 19.5837 23.875 19.417L28.333 31.75L28.125 33.208ZM20 17.5C18.8333 17.5 17.8473 17.0973 17.042 16.292C16.236 15.486 15.833 14.4997 15.833 13.333C15.833 12.2223 16.1803 11.292 16.875 10.542C17.5697 9.792 18.3753 9.36133 19.292 9.25V5H20.708V9.25C21.6247 9.36133 22.4303 9.792 23.125 10.542C23.8197 11.292 24.167 12.2223 24.167 13.333C24.167 14.4997 23.764 15.486 22.958 16.292C22.1527 17.0973 21.1667 17.5 20 17.5ZM20 16.083C20.75 16.083 21.396 15.8123 21.938 15.271C22.4793 14.729 22.75 14.083 22.75 13.333C22.75 12.583 22.4793 11.9373 21.938 11.396C21.396 10.854 20.75 10.583 20 10.583C19.25 10.583 18.604 10.854 18.062 11.396C17.5207 11.9373 17.25 12.583 17.25 13.333C17.25 14.083 17.5207 14.729 18.062 15.271C18.604 15.8123 19.25 16.083 20 16.083Z" fill="url(#paint0_linear_153_532)"/>
</g>
<defs>
<linearGradient id="paint0_linear_153_532" x1="11.667" y1="19.1015" x2="30.7789" y2="19.1015" gradientUnits="userSpaceOnUse">
<stop offset="0.03" stop-color="#F2A01E"/>
<stop offset="0.22" stop-color="#F29C20"/>
<stop offset="0.41" stop-color="#F19126"/>
<stop offset="0.58" stop-color="#F07E30"/>
<stop offset="0.76" stop-color="#EF633E"/>
<stop offset="0.92" stop-color="#ED4251"/>
<stop offset="1" stop-color="#EC305A"/>
</linearGradient>
</defs>
</svg>
