<svg width="40" height="40" viewBox="0 0 40 40" fill="none" xmlns="http://www.w3.org/2000/svg">
<mask id="mask0_153_520" style="mask-type:alpha" maskUnits="userSpaceOnUse" x="0" y="0" width="40" height="40">
<rect width="40" height="40" fill="#D9D9D9"/>
</mask>
<g mask="url(#mask0_153_520)">
<path d="M10.75 35C10.0833 35 9.51401 34.764 9.04201 34.292C8.56934 33.8193 8.33301 33.2497 8.33301 32.583V7.417C8.33301 6.75033 8.56934 6.18067 9.04201 5.708C9.51401 5.236 10.0833 5 10.75 5H29.25C29.9167 5 30.486 5.236 30.958 5.708C31.4307 6.18067 31.667 6.75033 31.667 7.417V32.583C31.667 33.2497 31.4307 33.8193 30.958 34.292C30.486 34.764 29.9167 35 29.25 35H10.75ZM10.75 33.583H29.25C29.5 33.583 29.7293 33.479 29.938 33.271C30.146 33.0623 30.25 32.833 30.25 32.583V7.417C30.25 7.167 30.146 6.93767 29.938 6.729C29.7293 6.521 29.5 6.417 29.25 6.417H27.167V16.417L23.875 14.5L20.583 16.417V6.417H10.75C10.5 6.417 10.2707 6.521 10.062 6.729C9.85401 6.93767 9.75001 7.167 9.75001 7.417V32.583C9.75001 32.833 9.85401 33.0623 10.062 33.271C10.2707 33.479 10.5 33.583 10.75 33.583Z" fill="url(#paint0_linear_153_520)"/>
</g>
<defs>
<linearGradient id="paint0_linear_153_520" x1="8.33301" y1="19.9974" x2="35.0916" y2="19.9974" gradientUnits="userSpaceOnUse">
<stop offset="0.03" stop-color="#F2A01E"/>
<stop offset="0.22" stop-color="#F29C20"/>
<stop offset="0.41" stop-color="#F19126"/>
<stop offset="0.58" stop-color="#F07E30"/>
<stop offset="0.76" stop-color="#EF633E"/>
<stop offset="0.92" stop-color="#ED4251"/>
<stop offset="1" stop-color="#EC305A"/>
</linearGradient>
</defs>
</svg>
