<svg width="38" height="38" viewBox="0 0 38 38" fill="none" xmlns="http://www.w3.org/2000/svg">
<mask id="mask0_127_456" style="mask-type:alpha" maskUnits="userSpaceOnUse" x="0" y="0" width="38" height="38">
<rect width="38" height="38" fill="#D9D9D9"/>
</mask>
<g mask="url(#mask0_127_456)">
<path d="M29.3709 33.2101C29.2126 33.2101 29.0672 33.1838 28.9349 33.1312C28.8031 33.0787 28.6714 32.9995 28.5397 32.8937L20.0685 24.4226V23.0774L22.9584 20.1476H24.3036L32.8147 28.6586C32.9198 28.7638 32.9923 28.8889 33.0322 29.0339C33.0715 29.1796 33.0911 29.3316 33.0911 29.4899C33.0911 29.6482 33.0715 29.7933 33.0322 29.925C32.9923 30.0567 32.9065 30.1888 32.7748 30.3211L30.1623 32.8937C30.0565 32.9995 29.9377 33.0787 29.806 33.1312C29.6743 33.1838 29.5292 33.2101 29.3709 33.2101ZM29.3709 31.825L31.7459 29.45L23.7099 21.4149L21.3349 23.7899L29.3709 31.825ZM8.58966 33.2101C8.43133 33.2101 8.28598 33.1838 8.15361 33.1312C8.02188 33.0787 7.90313 32.9995 7.79736 32.8937L5.14591 30.2812C5.04015 30.1495 4.96098 30.0175 4.90841 29.8851C4.85521 29.7534 4.82861 29.6083 4.82861 29.45C4.82861 29.2917 4.85521 29.1466 4.90841 29.0149C4.96098 28.8825 5.04015 28.7505 5.14591 28.6187L13.4584 20.3062H16.7834L18.0498 19.0399L11.2022 12.1913H8.94591L4.90841 8.15385L8.11466 4.9476L12.1522 8.9851V11.2413L18.9998 18.0899L23.9474 13.1413L20.7411 9.9351L22.5224 8.15385H18.9209L18.406 7.6399L22.7209 3.325L23.2349 3.8V7.44135L25.0161 5.6601L31.6272 12.1913C31.9964 12.5346 32.2735 12.9371 32.4584 13.3988C32.6427 13.8605 32.7349 14.3554 32.7349 14.8836C32.7349 15.2529 32.6886 15.6025 32.5962 15.9324C32.5043 16.2624 32.3659 16.5857 32.181 16.9024L28.9349 13.6562L26.6786 15.9125L24.8584 14.0913L17.6935 21.2562V24.6211L9.42091 32.8937C9.28855 32.9995 9.1565 33.0787 9.02476 33.1312C8.89303 33.1838 8.748 33.2101 8.58966 33.2101ZM8.58966 31.825L16.7435 23.6312L14.3685 21.2562L6.21466 29.4101L8.58966 31.825Z" fill="url(#paint0_linear_127_456)"/>
</g>
<defs>
<linearGradient id="paint0_linear_127_456" x1="4.82861" y1="18.2649" x2="37.239" y2="18.2649" gradientUnits="userSpaceOnUse">
<stop offset="0.03" stop-color="#F2A01E"/>
<stop offset="0.22" stop-color="#F29C20"/>
<stop offset="0.41" stop-color="#F19126"/>
<stop offset="0.58" stop-color="#F07E30"/>
<stop offset="0.76" stop-color="#EF633E"/>
<stop offset="0.92" stop-color="#ED4251"/>
<stop offset="1" stop-color="#EC305A"/>
</linearGradient>
</defs>
</svg>
