<svg width="40" height="40" viewBox="0 0 40 40" fill="none" xmlns="http://www.w3.org/2000/svg">
<mask id="mask0_153_508" style="mask-type:alpha" maskUnits="userSpaceOnUse" x="0" y="0" width="40" height="40">
<rect width="40" height="40" fill="#D9D9D9"/>
</mask>
<g mask="url(#mask0_153_508)">
<path d="M13.083 31.042V23.875L18.875 27.458L13.083 31.042ZM21.667 15.708C20.4443 15.708 19.4093 15.2847 18.562 14.438C17.7153 13.5907 17.292 12.5557 17.292 11.333C17.292 10.139 17.7153 9.11133 18.562 8.25C19.4093 7.38867 20.4443 6.958 21.667 6.958H23.125V8.208H21.667C20.8057 8.208 20.0693 8.51367 19.458 9.125C18.8473 9.73633 18.542 10.4723 18.542 11.333C18.542 12.2223 18.8473 12.9657 19.458 13.563C20.0693 14.1597 20.8057 14.458 21.667 14.458H23.125V15.708H21.667ZM26.875 15.708V14.458H28.333C29.1943 14.458 29.9307 14.1597 30.542 13.563C31.1527 12.9657 31.458 12.2223 31.458 11.333C31.458 10.4723 31.1527 9.73633 30.542 9.125C29.9307 8.51367 29.1943 8.208 28.333 8.208H26.875V6.958H28.333C29.5557 6.958 30.5903 7.38867 31.437 8.25C32.2843 9.11133 32.708 10.139 32.708 11.333C32.708 12.5557 32.2843 13.5907 31.437 14.438C30.5903 15.2847 29.5557 15.708 28.333 15.708H26.875ZM22.292 11.958V10.708H27.708V11.958H22.292ZM26.042 21.708V20.042H34.25C34.528 20.042 34.764 19.9447 34.958 19.75C35.1527 19.5553 35.25 19.3053 35.25 19V5.917C35.25 5.639 35.1527 5.40267 34.958 5.208C34.764 5.014 34.528 4.917 34.25 4.917H15.75C15.472 4.917 15.236 5.014 15.042 5.208C14.8473 5.40267 14.75 5.639 14.75 5.917V19.083H13.333V5.917C13.333 5.27767 13.576 4.715 14.062 4.229C14.5487 3.743 15.1113 3.5 15.75 3.5H34.25C34.8887 3.5 35.4513 3.743 35.938 4.229C36.424 4.715 36.667 5.27767 36.667 5.917V19.25C36.667 19.9167 36.424 20.493 35.938 20.979C35.4513 21.465 34.8887 21.708 34.25 21.708H26.042ZM5.75001 36.5C5.11134 36.5 4.54867 36.257 4.06201 35.771C3.57601 35.285 3.33301 34.7223 3.33301 34.083V20.875C3.33301 20.2083 3.57601 19.632 4.06201 19.146C4.54867 18.66 5.11134 18.417 5.75001 18.417H24.25C24.8887 18.417 25.4513 18.66 25.938 19.146C26.424 19.632 26.667 20.2083 26.667 20.875V34.083C26.667 34.7223 26.424 35.285 25.938 35.771C25.4513 36.257 24.8887 36.5 24.25 36.5H5.75001ZM5.75001 35.083H24.25C24.528 35.083 24.764 34.986 24.958 34.792C25.1527 34.5973 25.25 34.361 25.25 34.083V20.875C25.25 20.5697 25.1527 20.3197 24.958 20.125C24.764 19.9303 24.528 19.833 24.25 19.833H5.75001C5.47201 19.833 5.23601 19.9303 5.04201 20.125C4.84734 20.3197 4.75001 20.5697 4.75001 20.875V34.083C4.75001 34.361 4.84734 34.5973 5.04201 34.792C5.23601 34.986 5.47201 35.083 5.75001 35.083Z" fill="url(#paint0_linear_153_508)"/>
</g>
<defs>
<linearGradient id="paint0_linear_153_508" x1="3.33301" y1="19.9971" x2="41.5592" y2="19.9971" gradientUnits="userSpaceOnUse">
<stop offset="0.03" stop-color="#F2A01E"/>
<stop offset="0.22" stop-color="#F29C20"/>
<stop offset="0.41" stop-color="#F19126"/>
<stop offset="0.58" stop-color="#F07E30"/>
<stop offset="0.76" stop-color="#EF633E"/>
<stop offset="0.92" stop-color="#ED4251"/>
<stop offset="1" stop-color="#EC305A"/>
</linearGradient>
</defs>
</svg>
