<svg width="40" height="40" viewBox="0 0 40 40" fill="none" xmlns="http://www.w3.org/2000/svg">
<mask id="mask0_153_538" style="mask-type:alpha" maskUnits="userSpaceOnUse" x="0" y="0" width="40" height="40">
<rect width="40" height="40" fill="#D9D9D9"/>
</mask>
<g mask="url(#mask0_153_538)">
<path d="M4.875 32.625C4.20833 32.625 3.646 32.396 3.188 31.938C2.72933 31.4793 2.5 30.9167 2.5 30.25C2.5 29.5833 2.72933 29.0207 3.188 28.562C3.646 28.104 4.20833 27.875 4.875 27.875C5.06967 27.875 5.25733 27.896 5.438 27.938C5.618 27.9793 5.80533 28.0557 6 28.167L14.583 19.583C14.4723 19.389 14.396 19.2017 14.354 19.021C14.3127 18.8403 14.292 18.6527 14.292 18.458C14.292 17.7913 14.521 17.229 14.979 16.771C15.4377 16.3123 16.0003 16.083 16.667 16.083C17.3337 16.083 17.896 16.3123 18.354 16.771C18.8127 17.229 19.042 17.7913 19.042 18.458C19.042 18.5973 18.9723 18.9587 18.833 19.542L23.917 24.625C24.111 24.5697 24.2913 24.521 24.458 24.479C24.6247 24.4377 24.8053 24.417 25 24.417C25.1947 24.417 25.382 24.4377 25.562 24.479C25.7427 24.521 25.9163 24.5973 26.083 24.708L33.042 17.75C32.9307 17.5833 32.854 17.4097 32.812 17.229C32.7707 17.0483 32.75 16.861 32.75 16.667C32.75 16.0003 32.986 15.4377 33.458 14.979C33.9307 14.521 34.4863 14.292 35.125 14.292C35.7917 14.292 36.354 14.521 36.812 14.979C37.2707 15.4377 37.5 16.0003 37.5 16.667C37.5 17.3337 37.2707 17.896 36.812 18.354C36.354 18.8127 35.7917 19.042 35.125 19.042C34.9303 19.042 34.7427 19.021 34.562 18.979C34.382 18.9377 34.2087 18.8613 34.042 18.75L27.083 25.708C27.1943 25.8747 27.2707 26.0483 27.312 26.229C27.354 26.4097 27.375 26.5973 27.375 26.792C27.375 27.4587 27.146 28.021 26.688 28.479C26.2293 28.9377 25.6667 29.167 25 29.167C24.3333 29.167 23.7707 28.9377 23.312 28.479C22.854 28.021 22.625 27.4587 22.625 26.792C22.625 26.5973 22.646 26.4097 22.688 26.229C22.7293 26.0483 22.8057 25.861 22.917 25.667L17.792 20.542C17.5973 20.6527 17.4097 20.729 17.229 20.771C17.0483 20.8123 16.861 20.833 16.667 20.833C16.5277 20.833 16.1663 20.7637 15.583 20.625L7.042 29.208C7.09733 29.3747 7.146 29.5413 7.188 29.708C7.22933 29.8747 7.25 30.0553 7.25 30.25C7.25 30.9167 7.02067 31.4793 6.562 31.938C6.104 32.396 5.54167 32.625 4.875 32.625ZM6.667 14.917L6.125 13.708L4.875 13.125L6.125 12.583L6.667 11.333L7.25 12.583L8.458 13.125L7.25 13.708L6.667 14.917ZM25 12.417L24.167 10.583L22.333 9.74999L24.167 8.91699L25 7.04199L25.833 8.91699L27.667 9.74999L25.833 10.583L25 12.417Z" fill="url(#paint0_linear_153_538)"/>
</g>
<defs>
<linearGradient id="paint0_linear_153_538" x1="2.5" y1="19.8312" x2="42.6367" y2="19.8312" gradientUnits="userSpaceOnUse">
<stop offset="0.03" stop-color="#F2A01E"/>
<stop offset="0.22" stop-color="#F29C20"/>
<stop offset="0.41" stop-color="#F19126"/>
<stop offset="0.58" stop-color="#F07E30"/>
<stop offset="0.76" stop-color="#EF633E"/>
<stop offset="0.92" stop-color="#ED4251"/>
<stop offset="1" stop-color="#EC305A"/>
</linearGradient>
</defs>
</svg>
