<svg width="42" height="42" viewBox="0 0 42 42" fill="none" xmlns="http://www.w3.org/2000/svg">
<mask id="mask0_259_2" style="mask-type:alpha" maskUnits="userSpaceOnUse" x="0" y="0" width="42" height="42">
<rect width="42" height="42" fill="#D9D9D9"/>
</mask>
<g mask="url(#mask0_259_2)">
<path d="M7.21881 34.7371V29.925L15.3122 21.8316L6.73791 13.2121C6.65041 13.1246 6.57026 13.0081 6.49746 12.8625C6.42396 12.7169 6.38721 12.5856 6.38721 12.4687C6.38721 12.3518 6.42396 12.2206 6.49746 12.075C6.57026 11.9294 6.65041 11.8128 6.73791 11.7253L10.8497 7.61247C10.9372 7.52497 11.0541 7.44482 11.2004 7.37202C11.346 7.29922 11.4773 7.26282 11.5942 7.26282C11.7104 7.26282 11.8416 7.29922 11.9879 7.37202C12.1335 7.44482 12.2501 7.52497 12.3376 7.61247L21.0001 16.2309L28.9192 8.26872C29.0648 8.15182 29.2177 8.07167 29.378 8.02827C29.5383 7.98417 29.6916 7.96212 29.8379 7.96212C30.0129 7.96212 30.1659 7.98417 30.2968 8.02827C30.4284 8.07167 30.567 8.15182 30.7126 8.26872L33.7313 11.3316C33.8482 11.4772 33.9357 11.6158 33.9938 11.7474C34.0519 11.8783 34.081 12.0312 34.081 12.2062C34.081 12.3812 34.0519 12.5342 33.9938 12.6651C33.9357 12.7967 33.8482 12.9353 33.7313 13.0809L25.8122 21L34.4317 29.6625C34.5192 29.75 34.592 29.8665 34.6501 30.0121C34.7082 30.1584 34.7372 30.2897 34.7372 30.4059C34.7372 30.5228 34.7082 30.6467 34.6501 30.7776C34.592 30.9092 34.5192 31.0187 34.4317 31.1062L30.2747 35.2621C30.1872 35.3496 30.0707 35.4298 29.9251 35.5026C29.7795 35.5761 29.6482 35.6128 29.5313 35.6128C29.4144 35.6128 29.2832 35.5761 29.1376 35.5026C28.992 35.4298 28.8754 35.3496 28.7879 35.2621L20.1254 26.6437L12.031 34.7371H7.21881ZM16.0567 21.1312L20.2567 16.9312L16.3192 12.9937L14.2622 15.0496L13.5188 14.3062L15.5747 12.2503L11.5942 8.26872L7.39416 12.4687L16.0567 21.1312ZM29.4872 34.5628L33.6872 30.3628L29.7067 26.3812L27.6497 28.4371L26.9063 27.6937L28.9622 25.6378L25.0247 21.7003L20.8247 25.9003L29.4872 34.5628ZM8.26881 33.6871H11.5942L28.9622 16.3191L25.6379 12.9937L8.26881 30.3628V33.6871ZM29.7067 15.6187L33.1192 12.2062L29.7938 8.88087L26.3813 12.2934L29.7067 15.6187Z" fill="url(#paint0_linear_259_2)"/>
</g>
<defs>
<linearGradient id="paint0_linear_259_2" x1="6.38721" y1="21.4353" x2="38.8979" y2="21.4353" gradientUnits="userSpaceOnUse">
<stop offset="0.03" stop-color="#F2A01E"/>
<stop offset="0.22" stop-color="#F29C20"/>
<stop offset="0.41" stop-color="#F19126"/>
<stop offset="0.58" stop-color="#F07E30"/>
<stop offset="0.76" stop-color="#EF633E"/>
<stop offset="0.92" stop-color="#ED4251"/>
<stop offset="1" stop-color="#EC305A"/>
</linearGradient>
</defs>
</svg>
