<svg width="40" height="40" viewBox="0 0 40 40" fill="none" xmlns="http://www.w3.org/2000/svg">
<mask id="mask0_127_420" style="mask-type:alpha" maskUnits="userSpaceOnUse" x="0" y="0" width="40" height="40">
<rect width="40" height="40" fill="#D9D9D9"/>
</mask>
<g mask="url(#mask0_127_420)">
<path d="M19 28.25C16.9167 28 15.1737 27.0973 13.771 25.542C12.3683 23.986 11.667 22.1387 11.667 20C11.667 17.6667 12.4723 15.6943 14.083 14.083C15.6943 12.4723 17.6667 11.667 20 11.667C22.1387 11.667 23.986 12.3613 25.542 13.75C27.0973 15.1387 28 16.8887 28.25 19L26.75 18.542C26.3887 16.9587 25.59 15.653 24.354 14.625C23.118 13.597 21.6667 13.083 20 13.083C18.0833 13.083 16.4513 13.7567 15.104 15.104C13.7567 16.4513 13.083 18.0833 13.083 20C13.083 21.6667 13.604 23.125 14.646 24.375C15.6873 25.625 16.986 26.4167 18.542 26.75L19 28.25ZM21 34.958C20.8333 34.986 20.6667 35 20.5 35H20C17.9167 35 15.9653 34.604 14.146 33.812C12.3267 33.0207 10.7433 31.9513 9.396 30.604C8.04867 29.2567 6.97933 27.6733 6.188 25.854C5.396 24.0347 5 22.0833 5 20C5 17.9167 5.396 15.9653 6.188 14.146C6.97933 12.3267 8.04867 10.7433 9.396 9.396C10.7433 8.04867 12.3267 6.97933 14.146 6.188C15.9653 5.396 17.9167 5 20 5C22.0833 5 24.0347 5.396 25.854 6.188C27.6733 6.97933 29.2567 8.04867 30.604 9.396C31.9513 10.7433 33.0207 12.3267 33.812 14.146C34.604 15.9653 35 17.9167 35 20V20.5C35 20.6667 34.986 20.8333 34.958 21L33.583 20.583V20C33.583 16.222 32.2637 13.0137 29.625 10.375C26.9863 7.73633 23.778 6.417 20 6.417C16.222 6.417 13.0137 7.73633 10.375 10.375C7.73633 13.0137 6.417 16.222 6.417 20C6.417 23.778 7.73633 26.9863 10.375 29.625C13.0137 32.2637 16.222 33.583 20 33.583H20.583L21 34.958ZM32.917 34.667L24.917 26.625L23.417 31.292L20 20L31.292 23.417L26.625 24.917L34.667 32.917L32.917 34.667Z" fill="url(#paint0_linear_127_420)"/>
</g>
<defs>
<linearGradient id="paint0_linear_127_420" x1="5" y1="19.9974" x2="39.4029" y2="19.9974" gradientUnits="userSpaceOnUse">
<stop offset="0.03" stop-color="#F2A01E"/>
<stop offset="0.22" stop-color="#F29C20"/>
<stop offset="0.41" stop-color="#F19126"/>
<stop offset="0.58" stop-color="#F07E30"/>
<stop offset="0.76" stop-color="#EF633E"/>
<stop offset="0.92" stop-color="#ED4251"/>
<stop offset="1" stop-color="#EC305A"/>
</linearGradient>
</defs>
</svg>
