<svg width="60" height="60" viewBox="0 0 60 60" fill="none" xmlns="http://www.w3.org/2000/svg">
<mask id="mask0_153_65" style="mask-type:alpha" maskUnits="userSpaceOnUse" x="0" y="0" width="60" height="60">
<rect width="60" height="60" fill="#D9D9D9"/>
</mask>
<g mask="url(#mask0_153_65)">
<path d="M24 30.7498V21.1248L30 17.1248L36 21.1248V30.7498H32V25.1248H28V30.7498H24ZM30 51.3123C35.25 46.8123 39.3333 42.1764 42.25 37.4048C45.1667 32.6348 46.625 28.6664 46.625 25.4998C46.625 20.4581 45.0208 16.3431 41.8125 13.1548C38.6042 9.96809 34.6667 8.37476 30 8.37476C25.3333 8.37476 21.3958 9.96809 18.1875 13.1548C14.9792 16.3431 13.375 20.4581 13.375 25.4998C13.375 28.6664 14.8333 32.6348 17.75 37.4048C20.6667 42.1764 24.75 46.8123 30 51.3123ZM30 53.7498C23.7917 48.1664 19.1775 42.9889 16.1575 38.2173C13.1358 33.4473 11.625 29.2081 11.625 25.4998C11.625 19.7498 13.4792 15.1664 17.1875 11.7498C20.8958 8.33309 25.1667 6.62476 30 6.62476C34.8333 6.62476 39.1042 8.33309 42.8125 11.7498C46.5208 15.1664 48.375 19.7498 48.375 25.4998C48.375 29.2081 46.865 33.4473 43.845 38.2173C40.8233 42.9889 36.2083 48.1664 30 53.7498Z" fill="url(#paint0_linear_153_65)"/>
</g>
<defs>
<linearGradient id="paint0_linear_153_65" x1="11.625" y1="30.1831" x2="53.7685" y2="30.1831" gradientUnits="userSpaceOnUse">
<stop offset="0.03" stop-color="#F2A01E"/>
<stop offset="0.22" stop-color="#F29C20"/>
<stop offset="0.41" stop-color="#F19126"/>
<stop offset="0.58" stop-color="#F07E30"/>
<stop offset="0.76" stop-color="#EF633E"/>
<stop offset="0.92" stop-color="#ED4251"/>
<stop offset="1" stop-color="#EC305A"/>
</linearGradient>
</defs>
</svg>
