<svg width="40" height="40" viewBox="0 0 40 40" fill="none" xmlns="http://www.w3.org/2000/svg">
<mask id="mask0_127_444" style="mask-type:alpha" maskUnits="userSpaceOnUse" x="0" y="0" width="40" height="40">
<rect width="40" height="40" fill="#D9D9D9"/>
</mask>
<g mask="url(#mask0_127_444)">
<path d="M9.08299 37.833C8.41633 37.833 7.84699 37.597 7.37499 37.125C6.90299 36.653 6.66699 36.0837 6.66699 35.417V13.583C6.66699 12.9163 6.90299 12.347 7.37499 11.875C7.84699 11.403 8.41633 11.167 9.08299 11.167H23.292L21.875 12.583H9.08299C8.83299 12.583 8.60399 12.6873 8.39599 12.896C8.18733 13.104 8.08299 13.333 8.08299 13.583V35.417C8.08299 35.667 8.18733 35.896 8.39599 36.104C8.60399 36.3127 8.83299 36.417 9.08299 36.417H30.917C31.167 36.417 31.396 36.3127 31.604 36.104C31.8127 35.896 31.917 35.667 31.917 35.417V22.583L33.333 21.167V35.417C33.333 36.0837 33.097 36.653 32.625 37.125C32.153 37.597 31.5837 37.833 30.917 37.833H9.08299ZM28.333 11.417L29.375 12.417L18.083 23.667V26.417H20.792L32.167 15.125L33.125 16.083L21.417 27.833H16.667V23.083L28.333 11.417ZM33.125 16.083L28.333 11.417L31.792 7.958C32.264 7.486 32.8403 7.257 33.521 7.271C34.2017 7.285 34.778 7.528 35.25 8L36.542 9.25C37.014 9.75 37.25 10.3333 37.25 11C37.25 11.6667 37 12.236 36.5 12.708L33.125 16.083Z" fill="url(#paint0_linear_127_444)"/>
</g>
<defs>
<linearGradient id="paint0_linear_127_444" x1="6.66699" y1="22.549" x2="41.7384" y2="22.549" gradientUnits="userSpaceOnUse">
<stop offset="0.03" stop-color="#F2A01E"/>
<stop offset="0.22" stop-color="#F29C20"/>
<stop offset="0.41" stop-color="#F19126"/>
<stop offset="0.58" stop-color="#F07E30"/>
<stop offset="0.76" stop-color="#EF633E"/>
<stop offset="0.92" stop-color="#ED4251"/>
<stop offset="1" stop-color="#EC305A"/>
</linearGradient>
</defs>
</svg>
