<svg width="40" height="40" viewBox="0 0 40 40" fill="none" xmlns="http://www.w3.org/2000/svg">
<mask id="mask0_127_450" style="mask-type:alpha" maskUnits="userSpaceOnUse" x="0" y="0" width="40" height="40">
<rect width="40" height="40" fill="#D9D9D9"/>
</mask>
<g mask="url(#mask0_127_450)">
<path d="M20 35C17.9167 35 15.9653 34.604 14.146 33.812C12.3267 33.0207 10.7433 31.9513 9.396 30.604C8.04867 29.2567 6.97933 27.6733 6.188 25.854C5.396 24.0347 5 22.0833 5 20C5 17.9167 5.396 15.9653 6.188 14.146C6.97933 12.3267 8.04867 10.7433 9.396 9.396C10.7433 8.04867 12.3267 6.97933 14.146 6.188C15.9653 5.396 17.9167 5 20 5C22.0833 5 24.0347 5.396 25.854 6.188C27.6733 6.97933 29.2567 8.04867 30.604 9.396C31.9513 10.7433 33.0207 12.3267 33.812 14.146C34.604 15.9653 35 17.9167 35 20C35 22.0833 34.604 24.0347 33.812 25.854C33.0207 27.6733 31.9513 29.2567 30.604 30.604C29.2567 31.9513 27.6733 33.0207 25.854 33.812C24.0347 34.604 22.0833 35 20 35ZM20 33.583C21.75 33.583 23.4027 33.2777 24.958 32.667C26.514 32.0557 27.903 31.1943 29.125 30.083L25.375 26.375C24.653 26.9863 23.8337 27.4653 22.917 27.812C22.0003 28.1593 21.028 28.333 20 28.333C17.6947 28.333 15.7293 27.5207 14.104 25.896C12.4793 24.2707 11.667 22.3053 11.667 20C11.667 17.6947 12.4793 15.7293 14.104 14.104C15.7293 12.4793 17.6947 11.667 20 11.667C22.3053 11.667 24.2707 12.4793 25.896 14.104C27.5207 15.7293 28.333 17.6947 28.333 20C28.333 21.028 28.1593 22.0003 27.812 22.917C27.4653 23.8337 27.0003 24.653 26.417 25.375L30.125 29.083C31.2083 27.861 32.0557 26.4793 32.667 24.938C33.2777 23.396 33.583 21.75 33.583 20C33.583 16.222 32.2637 13.0137 29.625 10.375C26.9863 7.73633 23.778 6.417 20 6.417C16.222 6.417 13.0137 7.73633 10.375 10.375C7.73633 13.0137 6.417 16.222 6.417 20C6.417 23.778 7.73633 26.9863 10.375 29.625C13.0137 32.2637 16.222 33.583 20 33.583ZM20 26.917C20.8333 26.917 21.625 26.785 22.375 26.521C23.125 26.257 23.7917 25.875 24.375 25.375L20.542 21.583C20.4587 21.611 20.3683 21.632 20.271 21.646C20.1737 21.66 20.0833 21.667 20 21.667C19.5553 21.667 19.1663 21.5003 18.833 21.167C18.4997 20.8337 18.333 20.4447 18.333 20C18.333 19.5553 18.4997 19.1663 18.833 18.833C19.1663 18.4997 19.5553 18.333 20 18.333C20.4447 18.333 20.8337 18.4997 21.167 18.833C21.5003 19.1663 21.667 19.5553 21.667 20C21.667 20.0833 21.66 20.1807 21.646 20.292C21.632 20.4027 21.5973 20.4997 21.542 20.583L25.375 24.375C25.875 23.7637 26.257 23.09 26.521 22.354C26.785 21.618 26.917 20.8333 26.917 20C26.917 18.0833 26.2433 16.4513 24.896 15.104C23.5487 13.7567 21.9167 13.083 20 13.083C18.0833 13.083 16.4513 13.7567 15.104 15.104C13.7567 16.4513 13.083 18.0833 13.083 20C13.083 21.9167 13.7567 23.5487 15.104 24.896C16.4513 26.2433 18.0833 26.917 20 26.917Z" fill="url(#paint0_linear_127_450)"/>
</g>
<defs>
<linearGradient id="paint0_linear_127_450" x1="5" y1="19.9974" x2="39.4029" y2="19.9974" gradientUnits="userSpaceOnUse">
<stop offset="0.03" stop-color="#F2A01E"/>
<stop offset="0.22" stop-color="#F29C20"/>
<stop offset="0.41" stop-color="#F19126"/>
<stop offset="0.58" stop-color="#F07E30"/>
<stop offset="0.76" stop-color="#EF633E"/>
<stop offset="0.92" stop-color="#ED4251"/>
<stop offset="1" stop-color="#EC305A"/>
</linearGradient>
</defs>
</svg>
