<svg width="40" height="40" viewBox="0 0 40 40" fill="none" xmlns="http://www.w3.org/2000/svg">
<mask id="mask0_127_426" style="mask-type:alpha" maskUnits="userSpaceOnUse" x="0" y="0" width="40" height="40">
<rect width="40" height="40" fill="#D9D9D9"/>
</mask>
<g mask="url(#mask0_127_426)">
<path d="M22.458 34.583C22.1807 34.889 21.8407 35.042 21.438 35.042C21.0347 35.042 20.6943 34.889 20.417 34.583L5.458 19.625C5.29133 19.4863 5.17333 19.3267 5.104 19.146C5.03467 18.9653 5 18.764 5 18.542V6.417C5 6.02767 5.139 5.69433 5.417 5.417C5.69433 5.139 6.02767 5 6.417 5H18.542C18.736 5 18.9233 5.03467 19.104 5.104C19.2847 5.17333 19.4583 5.27767 19.625 5.417L34.542 20.333C34.8473 20.639 35.007 21.0003 35.021 21.417C35.035 21.8337 34.889 22.1807 34.583 22.458L22.458 34.583ZM21.458 33.625L33.625 21.458L18.583 6.417H6.417V18.542L21.458 33.625ZM10.667 12.208C11.0837 12.208 11.4447 12.0553 11.75 11.75C12.0553 11.4447 12.208 11.0697 12.208 10.625C12.208 10.2083 12.0553 9.84733 11.75 9.542C11.4447 9.236 11.0837 9.083 10.667 9.083C10.2223 9.083 9.84733 9.229 9.542 9.521C9.236 9.81233 9.083 10.1803 9.083 10.625C9.083 11.0417 9.236 11.4097 9.542 11.729C9.84733 12.0483 10.2223 12.208 10.667 12.208Z" fill="url(#paint0_linear_127_426)"/>
</g>
<defs>
<linearGradient id="paint0_linear_127_426" x1="5" y1="20.0184" x2="39.428" y2="20.0184" gradientUnits="userSpaceOnUse">
<stop offset="0.03" stop-color="#F2A01E"/>
<stop offset="0.22" stop-color="#F29C20"/>
<stop offset="0.41" stop-color="#F19126"/>
<stop offset="0.58" stop-color="#F07E30"/>
<stop offset="0.76" stop-color="#EF633E"/>
<stop offset="0.92" stop-color="#ED4251"/>
<stop offset="1" stop-color="#EC305A"/>
</linearGradient>
</defs>
</svg>
