<svg width="40" height="40" viewBox="0 0 40 40" fill="none" xmlns="http://www.w3.org/2000/svg">
<mask id="mask0_259_5" style="mask-type:alpha" maskUnits="userSpaceOnUse" x="0" y="0" width="40" height="40">
<rect width="40" height="40" fill="#D9D9D9"/>
</mask>
<g mask="url(#mask0_259_5)">
<path d="M3.33301 18.333L2.33301 17.333C4.61101 15.0557 7.25001 13.264 10.25 11.958C13.25 10.6527 16.5 10 20 10C20.472 10 21.0347 10.0207 21.688 10.062C22.3407 10.104 22.8613 10.139 23.25 10.167L22.625 11.583C22.1803 11.5557 21.7427 11.521 21.312 11.479C20.882 11.4377 20.4447 11.417 20 11.417C16.75 11.417 13.7013 12.028 10.854 13.25C8.00667 14.472 5.49967 16.1663 3.33301 18.333ZM10.042 24.958L9.04201 24C10.236 22.8053 11.6387 21.826 13.25 21.062C14.8613 20.2987 16.8197 19.792 19.125 19.542L18.458 20.958C16.708 21.1527 15.097 21.639 13.625 22.417C12.153 23.1943 10.9587 24.0413 10.042 24.958ZM19.292 31.958C18.792 31.7913 18.4377 31.472 18.229 31C18.021 30.528 18.042 30.014 18.292 29.458L26.25 11.458C26.278 11.3747 26.3473 11.2983 26.458 11.229C26.5693 11.1597 26.6807 11.139 26.792 11.167C26.9307 11.2223 27.0347 11.3057 27.104 11.417C27.1733 11.5277 27.1943 11.6387 27.167 11.75L21.667 30.708C21.5003 31.264 21.1877 31.646 20.729 31.854C20.271 32.0627 19.792 32.0973 19.292 31.958ZM29.958 24.958C29.6247 24.5973 29.215 24.2223 28.729 23.833C28.243 23.4443 27.764 23.125 27.292 22.875L27.708 21.542C28.264 21.8193 28.8473 22.1943 29.458 22.667C30.0693 23.139 30.5693 23.5833 30.958 24L29.958 24.958ZM36.667 18.333C35.7777 17.4443 34.7427 16.5763 33.562 15.729C32.382 14.8817 31.1807 14.1663 29.958 13.583L30.417 12.25C31.889 12.9447 33.1873 13.6877 34.312 14.479C35.4373 15.271 36.5557 16.2223 37.667 17.333L36.667 18.333Z" fill="url(#paint0_linear_259_5)"/>
</g>
<defs>
<linearGradient id="paint0_linear_259_5" x1="2.33301" y1="21.0189" x2="42.8527" y2="21.0189" gradientUnits="userSpaceOnUse">
<stop offset="0.03" stop-color="#F2A01E"/>
<stop offset="0.22" stop-color="#F29C20"/>
<stop offset="0.41" stop-color="#F19126"/>
<stop offset="0.58" stop-color="#F07E30"/>
<stop offset="0.76" stop-color="#EF633E"/>
<stop offset="0.92" stop-color="#ED4251"/>
<stop offset="1" stop-color="#EC305A"/>
</linearGradient>
</defs>
</svg>
