<svg width="40" height="40" viewBox="0 0 40 40" fill="none" xmlns="http://www.w3.org/2000/svg">
<mask id="mask0_259_11" style="mask-type:alpha" maskUnits="userSpaceOnUse" x="0" y="0" width="40" height="40">
<rect width="40" height="40" fill="#D9D9D9"/>
</mask>
<g mask="url(#mask0_259_11)">
<path d="M5.45801 30.667V29.167H8.83301V11.083C8.83301 10.4443 9.06234 9.896 9.52101 9.438C9.97901 8.97933 10.5277 8.75 11.167 8.75H33.917V9.75H11.167C10.7777 9.75 10.458 9.875 10.208 10.125C9.95801 10.375 9.83301 10.6943 9.83301 11.083V29.167H18.708V30.667H5.45801ZM26.375 30.667C26.0697 30.667 25.7987 30.542 25.562 30.292C25.326 30.042 25.208 29.764 25.208 29.458V15.75C25.208 15.4447 25.326 15.174 25.562 14.938C25.7987 14.7013 26.0697 14.583 26.375 14.583H33.292C33.6253 14.583 33.917 14.6943 34.167 14.917C34.417 15.139 34.542 15.4167 34.542 15.75V29.458C34.542 29.7913 34.417 30.076 34.167 30.312C33.917 30.5487 33.6253 30.667 33.292 30.667H26.375ZM26.208 29.167H33.542V15.583H26.208V29.167Z" fill="url(#paint0_linear_259_11)"/>
</g>
<defs>
<linearGradient id="paint0_linear_259_11" x1="5.45801" y1="19.7066" x2="38.8105" y2="19.7066" gradientUnits="userSpaceOnUse">
<stop offset="0.03" stop-color="#F2A01E"/>
<stop offset="0.22" stop-color="#F29C20"/>
<stop offset="0.41" stop-color="#F19126"/>
<stop offset="0.58" stop-color="#F07E30"/>
<stop offset="0.76" stop-color="#EF633E"/>
<stop offset="0.92" stop-color="#ED4251"/>
<stop offset="1" stop-color="#EC305A"/>
</linearGradient>
</defs>
</svg>
