<svg width="40" height="41" viewBox="0 0 40 41" fill="none" xmlns="http://www.w3.org/2000/svg">
<mask id="mask0_127_438" style="mask-type:alpha" maskUnits="userSpaceOnUse" x="0" y="0" width="40" height="41">
<rect y="0.710205" width="40" height="40" fill="#D9D9D9"/>
</mask>
<g mask="url(#mask0_127_438)">
<path d="M20 16.0022L19.042 15.0432L22.667 11.4182H14.292V10.0022H22.667L19.042 6.3772L20 5.41821L25.292 10.7102L20 16.0022ZM12.292 35.9182C11.6253 35.9182 11.0627 35.6822 10.604 35.2102C10.146 34.7382 9.917 34.1689 9.917 33.5022C9.917 32.8355 10.146 32.2729 10.604 31.8142C11.0627 31.3562 11.639 31.1272 12.333 31.1272C12.9997 31.1272 13.5623 31.3562 14.021 31.8142C14.479 32.2729 14.708 32.8355 14.708 33.5022C14.708 34.1689 14.479 34.7382 14.021 35.2102C13.5623 35.6822 12.986 35.9182 12.292 35.9182ZM28 35.9182C27.3333 35.9182 26.7707 35.6822 26.312 35.2102C25.854 34.7382 25.625 34.1689 25.625 33.5022C25.625 32.8355 25.854 32.2729 26.312 31.8142C26.7707 31.3562 27.3333 31.1272 28 31.1272C28.6667 31.1272 29.236 31.3562 29.708 31.8142C30.1807 32.2729 30.417 32.8355 30.417 33.5022C30.417 34.1689 30.1807 34.7382 29.708 35.2102C29.236 35.6822 28.6667 35.9182 28 35.9182ZM3.625 6.29321V4.8772H7.5L14.333 19.2932H25.5C25.6947 19.2932 25.8613 19.2449 26 19.1482C26.1387 19.0509 26.2637 18.9189 26.375 18.7522L32.292 8.2522H33.875L27.75 19.4602C27.5 19.8489 27.1807 20.1615 26.792 20.3982C26.4027 20.6342 25.9997 20.7522 25.583 20.7522H13.583L11.417 24.7932C11.2503 25.0432 11.2433 25.3212 11.396 25.6272C11.5487 25.9325 11.7917 26.0852 12.125 26.0852H30.417V27.5022H12.208C11.3193 27.5022 10.6527 27.1272 10.208 26.3772C9.764 25.6272 9.73633 24.8772 10.125 24.1272L12.792 19.4182L6.583 6.29321H3.625Z" fill="url(#paint0_linear_127_438)"/>
</g>
<defs>
<linearGradient id="paint0_linear_127_438" x1="3.625" y1="20.395" x2="38.3146" y2="20.395" gradientUnits="userSpaceOnUse">
<stop offset="0.03" stop-color="#F2A01E"/>
<stop offset="0.22" stop-color="#F29C20"/>
<stop offset="0.41" stop-color="#F19126"/>
<stop offset="0.58" stop-color="#F07E30"/>
<stop offset="0.76" stop-color="#EF633E"/>
<stop offset="0.92" stop-color="#ED4251"/>
<stop offset="1" stop-color="#EC305A"/>
</linearGradient>
</defs>
</svg>
